<svg width="27" height="30" viewBox="0 0 27 30" fill="none" xmlns="http://www.w3.org/2000/svg">
<path d="M8.91636 30C7.92392 29.9461 6.99002 29.5133 6.30732 28.791C5.49067 28.0053 4.76191 27.1331 4.13391 26.1898C3.15294 24.7851 2.37751 23.2475 1.83107 21.6236C1.21214 19.8767 0.886282 18.0394 0.866691 16.1861C0.819129 14.3676 1.26998 12.5708 2.17042 10.9902C2.8295 9.85073 3.7696 8.89923 4.90099 8.22644C6.01987 7.55653 7.29666 7.19593 8.60068 7.18156C9.58372 7.23972 10.5497 7.46441 11.4575 7.84606C12.1813 8.16451 12.9431 8.38838 13.7241 8.51213C14.5859 8.33158 15.428 8.06726 16.2384 7.72294C17.1975 7.34842 18.213 7.1387 19.242 7.10265C19.3793 7.10265 19.5151 7.10265 19.6461 7.11843C21.9024 7.18386 24.001 8.29145 25.3282 10.1173C23.2179 11.2456 21.9221 13.4655 21.9773 15.8578C21.9565 17.6723 22.7131 19.409 24.056 20.6292C24.6604 21.2051 25.3642 21.6666 26.1332 21.9914C25.9753 22.4649 25.7938 22.9226 25.6013 23.3835C25.1636 24.402 24.6236 25.3735 23.9898 26.283C23.3913 27.194 22.6948 28.0366 21.9126 28.7957C21.1986 29.5042 20.2468 29.9222 19.242 29.9684C18.3903 29.9306 17.5535 29.7308 16.7766 29.3797C15.9388 29.0147 15.0385 28.8148 14.125 28.791C13.1857 28.8094 12.2587 29.0082 11.3944 29.3765C10.6479 29.7133 9.85036 29.923 9.03473 29.9968L8.91636 30ZM13.8882 7.10265C13.7698 7.10265 13.6515 7.10265 13.5331 7.08844C13.5082 6.90057 13.495 6.71132 13.4936 6.52181C13.5452 4.94523 14.1614 3.43963 15.2298 2.27916C15.827 1.61243 16.5508 1.07108 17.359 0.686589C18.1133 0.298313 18.9376 0.0648684 19.7834 0C19.8071 0.206766 19.8071 0.408797 19.8071 0.601357C19.7848 2.15313 19.2017 3.64441 18.1656 4.79981C17.15 6.16159 15.5842 7.00458 13.8882 7.10265Z" fill="#333333"/>
</svg>
