<?xml version="1.0" standalone="no"?>
<!DOCTYPE svg PUBLIC "-//W3C//DTD SVG 20010904//EN"
 "http://www.w3.org/TR/2001/REC-SVG-20010904/DTD/svg10.dtd">
<svg version="1.0" xmlns="http://www.w3.org/2000/svg"
 width="200.000000pt" height="200.000000pt" viewBox="0 0 200.000000 200.000000"
 preserveAspectRatio="xMidYMid meet">

<g transform="translate(0.000000,200.000000) scale(0.100000,-0.100000)"
fill="#333333" stroke="none">
<path d="M860 1736 c-160 -35 -268 -94 -386 -211 -77 -76 -98 -105 -137 -185
-65 -132 -81 -201 -81 -340 0 -139 16 -208 81 -340 39 -80 61 -109 137 -186
77 -76 106 -98 186 -137 128 -63 200 -81 337 -81 61 -1 114 1 117 5 3 3 3 21
0 41 l-6 36 -102 0 c-166 0 -312 51 -428 150 -159 134 -240 308 -240 512 0
256 140 483 367 594 98 49 183 68 295 68 204 0 378 -81 512 -240 99 -116 150
-262 150 -428 l0 -102 36 -6 c20 -3 38 -3 41 0 4 3 6 56 5 117 0 137 -18 209
-81 337 -39 80 -61 109 -137 186 -77 76 -106 98 -186 137 -52 26 -122 54 -155
62 -86 23 -246 28 -325 11z"/>
<path d="M920 1432 l0 -69 -39 -18 c-46 -21 -96 -69 -110 -108 -17 -45 -13
-117 9 -163 24 -48 65 -79 170 -127 91 -42 120 -68 120 -107 0 -56 -43 -76
-145 -68 -43 4 -79 14 -111 32 -25 14 -48 26 -51 26 -2 0 -3 -35 -1 -77 l3
-76 40 -13 c22 -7 57 -15 78 -19 l37 -6 0 -69 0 -70 80 0 80 0 0 76 0 75 34
14 c48 20 97 64 112 102 8 18 14 59 14 91 0 47 -5 67 -26 98 -35 52 -44 58
-151 109 -107 51 -133 74 -133 115 0 74 132 90 268 34 9 -4 12 12 12 65 l0 70
-37 10 c-21 5 -49 11 -63 13 -23 3 -25 7 -28 66 l-3 62 -79 0 -80 0 0 -68z"/>
<path d="M1383 831 c-64 -24 -98 -47 -147 -101 -62 -69 -80 -121 -81 -230 0
-85 3 -101 28 -150 37 -72 96 -131 165 -166 84 -42 220 -42 304 0 69 35 128
94 165 166 25 49 28 66 28 150 0 84 -3 101 -28 150 -37 73 -96 131 -165 166
-76 37 -192 44 -269 15z m198 -77 c101 -30 189 -148 189 -254 0 -136 -134
-270 -270 -270 -136 0 -270 134 -270 270 0 103 81 216 180 250 68 24 101 24
171 4z"/>
<path d="M1466 694 c-11 -11 -16 -35 -16 -80 l0 -64 -64 0 c-68 0 -96 -14 -96
-50 0 -36 28 -50 96 -50 l64 0 0 -64 c0 -68 14 -96 50 -96 36 0 50 28 50 96
l0 64 64 0 c68 0 96 14 96 50 0 36 -28 50 -96 50 l-64 0 0 64 c0 68 -14 96
-50 96 -10 0 -26 -7 -34 -16z"/>
</g>
</svg>
