<svg width="31" height="30" viewBox="0 0 31 30" fill="none" xmlns="http://www.w3.org/2000/svg">
<path d="M0.40625 15.0903C0.408006 22.5148 5.8069 28.8364 13.1397 30V19.452H9.31073V15.0903H13.1442V11.77C12.9728 10.1966 13.5102 8.62862 14.6106 7.49117C15.711 6.35372 17.2604 5.76473 18.8385 5.88394C19.9713 5.90223 21.1012 6.00312 22.2192 6.18579V9.897H20.3115C19.6548 9.81098 18.9945 10.0279 18.5167 10.4866C18.0389 10.9453 17.7953 11.5962 17.8545 12.2559V15.0903H22.0366L21.368 19.4535H17.8545V30C25.7847 28.7467 31.3457 21.5042 30.5087 13.5193C29.6717 5.53436 22.7298 -0.3976 14.712 0.0208346C6.69427 0.439269 0.407525 7.06161 0.40625 15.0903Z" fill="#4968AD"/>
</svg>
