<svg width="30" height="30" viewBox="0 0 30 30" fill="none" xmlns="http://www.w3.org/2000/svg">
<path d="M29.7014 15.3324C29.7014 14.099 29.6013 13.199 29.3847 12.2656H15.3008V17.8325H23.5677C23.4011 19.2159 22.5011 21.2993 20.501 22.6993L20.4729 22.8857L24.926 26.3354L25.2345 26.3662C28.0679 23.7494 29.7014 19.8992 29.7014 15.3324Z" fill="#4285F4"/>
<path d="M15.3029 29.9987C19.353 29.9987 22.7531 28.6652 25.2367 26.3652L20.5031 22.6983C19.2364 23.5817 17.5363 24.1983 15.3029 24.1983C11.3361 24.1983 7.96935 21.5817 6.76919 17.9648L6.59327 17.9798L1.9629 21.5633L1.90234 21.7316C4.36909 26.6318 9.43597 29.9987 15.3029 29.9987Z" fill="#34A853"/>
<path d="M6.76765 17.9648C6.45098 17.0315 6.26771 16.0314 6.26771 14.998C6.26771 13.9646 6.45098 12.9646 6.75099 12.0312L6.7426 11.8325L2.0542 8.19141L1.90081 8.26437C0.884145 10.2978 0.300781 12.5813 0.300781 14.998C0.300781 17.4148 0.884145 19.6982 1.90081 21.7316L6.76765 17.9648Z" fill="#FBBC05"/>
<path d="M15.3029 5.8002C18.1197 5.8002 20.0197 7.01691 21.1031 8.03369L25.3366 3.90016C22.7366 1.4834 19.353 0 15.3029 0C9.43597 0 4.36909 3.36678 1.90234 8.26694L6.75252 12.0338C7.96935 8.41701 11.3361 5.8002 15.3029 5.8002Z" fill="#EB4335"/>
</svg>
