<?xml version="1.0" standalone="no"?>
<!DOCTYPE svg PUBLIC "-//W3C//DTD SVG 20010904//EN"
 "http://www.w3.org/TR/2001/REC-SVG-20010904/DTD/svg10.dtd">
<svg version="1.0" xmlns="http://www.w3.org/2000/svg"
 width="384.000000pt" height="362.000000pt" viewBox="0 0 384.000000 362.000000"
 preserveAspectRatio="xMidYMid meet">

<g transform="translate(0.000000,362.000000) scale(0.100000,-0.100000)"
fill="#333333" stroke="none">
<path d="M745 3076 c-260 -65 -394 -351 -274 -587 68 -137 216 -229 366 -229
30 0 43 -4 43 -14 0 -8 -36 -182 -81 -388 -70 -325 -80 -383 -77 -448 7 -131
83 -241 207 -299 54 -25 64 -26 261 -29 202 -4 206 -3 240 20 49 33 68 90 47
140 -28 67 -47 72 -265 78 l-194 5 -30 34 c-29 32 -30 38 -25 95 3 34 69 354
146 712 78 358 141 658 141 667 0 16 46 17 588 17 l588 0 22 -102 c11 -57 80
-375 151 -707 83 -385 128 -614 124 -632 -3 -16 -21 -43 -40 -59 l-34 -30
-183 0 c-174 0 -185 -1 -217 -23 -48 -32 -67 -89 -46 -139 29 -70 57 -78 263
-78 134 0 194 4 235 16 148 42 259 186 259 333 0 26 -36 216 -80 424 -44 208
-80 384 -80 392 0 11 12 15 43 15 149 0 298 92 366 228 123 243 -19 534 -287
591 -79 17 -2109 14 -2177 -3z m265 -236 c0 -8 -50 -251 -65 -317 -5 -21 -11
-23 -76 -23 -84 0 -124 15 -166 63 -72 82 -47 208 52 264 35 20 55 23 148 23
62 0 107 -4 107 -10z m1915 -13 c69 -39 105 -115 91 -192 -8 -43 -59 -103
-103 -121 -34 -15 -173 -19 -173 -6 0 4 -16 81 -35 172 -19 91 -35 166 -35
168 0 1 48 2 108 2 92 0 112 -3 147 -23z"/>
<path d="M1735 2488 c-78 -14 -185 -71 -242 -127 -30 -29 -66 -79 -85 -118
-30 -61 -33 -76 -33 -158 0 -81 3 -97 32 -158 56 -118 174 -209 314 -242 225
-53 462 52 553 244 28 59 31 76 31 156 0 82 -3 97 -32 156 -93 188 -314 290
-538 247z m208 -248 c131 -49 172 -173 85 -257 -58 -55 -94 -68 -188 -68 -94
0 -141 18 -193 72 -136 144 84 332 296 253z"/>
<path d="M1793 1425 c-18 -8 -42 -29 -53 -47 -19 -31 -20 -50 -20 -372 l0
-339 -84 81 c-89 85 -114 98 -170 88 -53 -10 -86 -56 -86 -118 l0 -51 188
-189 c103 -104 199 -196 214 -204 35 -18 82 -18 116 0 32 17 375 362 391 393
16 31 14 95 -5 121 -20 29 -65 52 -101 52 -37 0 -62 -18 -150 -104 l-73 -70 0
339 c0 323 -1 342 -20 373 -19 31 -72 63 -102 62 -7 -1 -28 -7 -45 -15z"/>
</g>
</svg>
